<svg id="Capa_1" data-name="Capa 1" xmlns="http://www.w3.org/2000/svg" xmlns:xlink="http://www.w3.org/1999/xlink" width="512" height="512" viewBox="0 0 512 512"><defs><style>.cls-1{fill:url(#New_Gradient_Swatch_1);}</style><linearGradient id="New_Gradient_Swatch_1" y1="256" x2="512" y2="256" gradientUnits="userSpaceOnUse"><stop offset="0" stop-color="#2580c3"/><stop offset="1" stop-color="#885da2"/></linearGradient></defs><path class="cls-1" d="M363.3,512H148.7C66.7,512,0,445.3,0,363.3V148.7C0,66.7,66.7,0,148.7,0H363.3C445.3,0,512,66.7,512,148.7V363.3C512,445.3,445.3,512,363.3,512ZM148.7,40A108.9,108.9,0,0,0,40,148.7V363.3A108.9,108.9,0,0,0,148.7,472H363.3A108.9,108.9,0,0,0,472,363.3V148.7A108.9,108.9,0,0,0,363.3,40ZM256,394c-76.1,0-138-61.9-138-138s61.9-138,138-138,138,61.9,138,138S332.1,394,256,394Zm0-236a98,98,0,1,0,98,98A98.2,98.2,0,0,0,256,158Zm120-42a20,20,0,1,0,20-20A20.1,20.1,0,0,0,376,116Z"/></svg>