<svg id="Layer_1" data-name="Layer 1" xmlns="http://www.w3.org/2000/svg" xmlns:xlink="http://www.w3.org/1999/xlink" width="512" height="512" viewBox="0 0 512 512"><defs><style>.cls-1{fill:url(#New_Gradient_Swatch_1);}</style><linearGradient id="New_Gradient_Swatch_1" y1="258" x2="512" y2="258" gradientTransform="matrix(1, 0, 0, -1, 0, 514)" gradientUnits="userSpaceOnUse"><stop offset="0" stop-color="#2580c3"/><stop offset="1" stop-color="#885da2"/></linearGradient></defs><path class="cls-1" d="M160,423H90V197h70Zm7-298a41,41,0,1,0-41,41A41.1,41.1,0,0,0,167,125ZM422,298.7C422,238,409.2,193,338.3,193c-34,0-56.9,17-66.2,34.7H272V197H204V423h68V310.8c0-29.4,7.5-57.9,43.9-57.9S353,286.5,353,312.7V423h69ZM512,452V60A60,60,0,0,0,452,0H60A60,60,0,0,0,0,60V452a60,60,0,0,0,60,60H452A60,60,0,0,0,512,452ZM452,40a20.1,20.1,0,0,1,20,20V452a20.1,20.1,0,0,1-20,20H60a20.1,20.1,0,0,1-20-20V60A20.1,20.1,0,0,1,60,40Z"/></svg>