<svg id="Layer_1" data-name="Layer 1" xmlns="http://www.w3.org/2000/svg" xmlns:xlink="http://www.w3.org/1999/xlink" width="1000" height="1000" viewBox="0 0 1000 1000"><defs><style>.cls-1{fill:url(#New_Gradient_Swatch_1);}.cls-2{fill:url(#New_Gradient_Swatch_1-2);}.cls-3{fill:url(#New_Gradient_Swatch_1-3);}</style><linearGradient id="New_Gradient_Swatch_1" y1="495.57" x2="999.04" y2="495.57" gradientUnits="userSpaceOnUse"><stop offset="0" stop-color="#2580c3"/><stop offset="1" stop-color="#885da2"/></linearGradient><linearGradient id="New_Gradient_Swatch_1-2" x1="187.09" y1="495.57" x2="713.41" y2="495.57" xlink:href="#New_Gradient_Swatch_1"/><linearGradient id="New_Gradient_Swatch_1-3" x1="374.19" y1="495.57" x2="713.41" y2="495.57" xlink:href="#New_Gradient_Swatch_1"/></defs><path class="cls-1" d="M851.4,145.2C757.5,51.6,632.5.1,499.5,0S241.6,51.5,147.1,145.1.1,363.4,0,495.4v.2c0,79.9,21,160.5,60.8,234.1l28.7,43.9L122.8,815,165,857.5l50,43,59.8,37.3a500.5,500.5,0,0,0,224.5,53.3h.2c132.7,0,257.9-51.5,352.4-145.1S999,627.8,999,495.8,946.7,240.1,851.4,145.2ZM499.5,913.1h-.2a421.7,421.7,0,0,1-200.5-50.8l-12.9-7.1-65.6-50.5-45.9-47.6-30.9-40L135.9,704C98.1,638.7,78,566.6,78,495.5,78.2,265.4,267.2,78,499.5,78c112.2.1,217.6,43.6,296.8,122.5S921,385.5,921,495.7C920.9,725.9,731.8,913.1,499.5,913.1Z"/><path class="cls-2" d="M713.4,238.1,187.1,479.6l138,59.1L374.2,738l90.4-94.6L611.8,753.1Zm-332,326.1L374.2,738,355.6,533.4,713.4,238.1Z"/><path class="cls-3" d="M713.4,238.1l-332,326.1L374.2,738l90.4-94.6L611.8,753.1Z"/></svg>