<svg id="Layer_1" data-name="Layer 1" xmlns="http://www.w3.org/2000/svg" xmlns:xlink="http://www.w3.org/1999/xlink" width="512" height="512" viewBox="0 0 512 512"><defs><style>.cls-1{fill:url(#New_Gradient_Swatch_1);}.cls-2{fill:url(#New_Gradient_Swatch_1-2);}</style><linearGradient id="New_Gradient_Swatch_1" y1="258" x2="511.51" y2="258" gradientTransform="matrix(1, 0, 0, -1, 0, 514)" gradientUnits="userSpaceOnUse"><stop offset="0" stop-color="#2580c3"/><stop offset="1" stop-color="#885da2"/></linearGradient><linearGradient id="New_Gradient_Swatch_1-2" x1="138.87" y1="262.24" x2="376.64" y2="262.24" xlink:href="#New_Gradient_Swatch_1"/></defs><path class="cls-1" d="M435.9,74.4a255.8,255.8,0,0,0-360.6-.1C26.8,122.3.1,186.1,0,253.6H0c0,40.9,10.8,82.1,31.2,119.8L.7,512l140-31.8a258.3,258.3,0,0,0,114.9,27.3h.1a255.1,255.1,0,0,0,180.5-74.3c48.5-48.1,75.3-111.8,75.3-179.4S484.7,122.9,435.9,74.4ZM255.7,467.5h0a215.8,215.8,0,0,1-102.7-26l-6.6-3.6L53.3,459.1l20.2-91.9-3.9-6.8C50.2,327,40,290.1,40,253.7,40,135.9,136.8,40,255.7,40a213.8,213.8,0,0,1,152,62.7c41.2,41,63.9,94.7,63.8,151.1C471.5,371.6,374.7,467.5,255.7,467.5Z"/><path class="cls-2" d="M186.2,141.9H174.9a21.3,21.3,0,0,0-15.6,7.3c-5.3,5.8-20.4,19.9-20.4,48.6s20.9,56.4,23.9,60.3,40.4,64.6,99.9,88c49.4,19.4,59.5,15.6,70.2,14.6s34.6-14.1,39.5-27.7,4.8-25.3,3.4-27.8-5.4-3.8-11.2-6.8-34.6-17.2-39.9-19.2-9.3-2.9-13.2,3-15.4,19.3-18.8,23.2-6.8,4.3-12.7,1.4-24.5-9.2-46.8-29c-17.4-15.5-29.5-35.2-32.9-41s-.4-9,2.6-11.9,6.2-6.2,9.1-9.6,3.7-5.8,5.7-9.7,1-7.3-.5-10.2-12.7-31.8-17.9-43.3h0C194.9,142.4,190.3,142,186.2,141.9Z"/></svg>