<svg id="Layer_2" data-name="Layer 2" xmlns="http://www.w3.org/2000/svg" xmlns:xlink="http://www.w3.org/1999/xlink" width="732.3" height="226.7" viewBox="0 0 732.3 226.7"><defs><style>.cls-1{fill:#4a6aa9;}.cls-2{fill:#a4d9f7;}.cls-10,.cls-3,.cls-4,.cls-5,.cls-6,.cls-7,.cls-8,.cls-9{fill:none;}.cls-10,.cls-3,.cls-4,.cls-5,.cls-6{stroke-miterlimit:10;stroke-width:5.79px;}.cls-3{stroke:url(#linear-gradient);}.cls-4{stroke:url(#linear-gradient-2);}.cls-5{stroke:url(#linear-gradient-3);}.cls-6{stroke:url(#linear-gradient-4);}.cls-7,.cls-8,.cls-9{stroke-linejoin:round;stroke-width:5.79px;}.cls-7{stroke:url(#linear-gradient-5);}.cls-8{stroke:url(#linear-gradient-6);}.cls-9{stroke:url(#linear-gradient-7);}.cls-10{stroke:url(#linear-gradient-8);}</style><linearGradient id="linear-gradient" x1="24.01" y1="149.91" x2="101.06" y2="149.91" gradientUnits="userSpaceOnUse"><stop offset="0" stop-color="#2581c4"/><stop offset="1" stop-color="#895da3"/></linearGradient><linearGradient id="linear-gradient-2" x1="37" y1="44.62" x2="191.1" y2="44.62" xlink:href="#linear-gradient"/><linearGradient id="linear-gradient-3" x1="127.04" y1="149.91" x2="204.09" y2="149.91" xlink:href="#linear-gradient"/><linearGradient id="linear-gradient-4" x1="39.89" y1="145.32" x2="101.06" y2="145.32" xlink:href="#linear-gradient"/><linearGradient id="linear-gradient-5" x1="39.89" y1="140.74" x2="116.95" y2="140.74" xlink:href="#linear-gradient"/><linearGradient id="linear-gradient-6" x1="39.89" y1="94.94" x2="188.22" y2="94.94" xlink:href="#linear-gradient"/><linearGradient id="linear-gradient-7" x1="111.16" y1="140.74" x2="188.22" y2="140.74" xlink:href="#linear-gradient"/><linearGradient id="linear-gradient-8" x1="127.04" y1="145.32" x2="188.22" y2="145.32" xlink:href="#linear-gradient"/></defs><path class="cls-1" d="M244.1,129.4V78.3h10.5v51.9c0,4.8,2,6.5,5.4,6.5s5.4-1.7,5.4-6.5V78.3h10.1v51.1c0,10.7-5.4,16.9-15.7,16.9S244.1,140.1,244.1,129.4Z"/><path class="cls-1" d="M283,78.3h13.2l10.2,40.1h.2V78.3H316v67H305.2L292.6,96.4h-.2v48.9H283Z"/><path class="cls-1" d="M323.9,78.3h10.5v67H323.9Z"/><path class="cls-1" d="M350.5,87.9h-11V78.3H372v9.6H361v57.4H350.5Z"/><path class="cls-1" d="M377.1,78.3h28.7v9.6H387.7v17.7h14.4v9.6H387.7v20.5h18.1v9.6H377.1Z"/><path class="cls-1" d="M411.9,78.3H428c10.5,0,15.7,5.8,15.7,16.5v34c0,10.7-5.2,16.5-15.7,16.5H411.9Zm15.9,57.4c3.3,0,5.3-1.7,5.3-6.5V94.4c0-4.8-2-6.5-5.3-6.5h-5.4v47.8Z"/><path class="cls-1" d="M466.1,78.3h10.5v67H466.1Z"/><path class="cls-1" d="M492.7,87.9h-11V78.3h32.6v9.6H503.2v57.4H492.7Z"/><path class="cls-1" d="M534,129.8v-36c0-10.4,5.3-16.5,15.5-16.5S565,83.4,565,93.8v7.1h-9.9V93.1c0-4.4-2.2-6.2-5.3-6.2s-5.3,1.8-5.3,6.2v37.5c0,4.4,2.1,6.1,5.3,6.1s5.3-1.7,5.3-6.1V120.3H565v9.5c0,10.3-5.3,16.5-15.5,16.5S534,140.1,534,129.8Z"/><path class="cls-1" d="M571.3,78.3h10.6v57.4h17.3v9.6H571.3Z"/><path class="cls-1" d="M603.9,129.4V78.3h10.5v51.9c0,4.8,2,6.5,5.4,6.5s5.4-1.7,5.4-6.5V78.3h10.1v51.1c0,10.7-5.4,16.9-15.7,16.9S603.9,140.1,603.9,129.4Z"/><path class="cls-1" d="M642.8,78.3h15.9c10.9,0,15.6,5.1,15.6,15.4v2.7c0,6.9-2.1,11.2-6.8,13.1v.2c5.6,1.9,7.8,6.9,7.8,14v5.7c0,10.4-5.4,15.9-15.9,15.9H642.8Zm14.6,27.3c4,0,6.4-1.8,6.4-7.1V94.8c0-4.8-1.7-6.9-5.4-6.9h-5.1v17.7Zm2,30.1c3.5,0,5.4-1.6,5.4-6.6v-5.8c0-6.2-2-8.1-6.8-8.1h-4.7v20.5Z"/><path class="cls-1" d="M679.7,129.4v-3.8h9.9v4.6c0,4.8,2.1,6.5,5.5,6.5s5.4-1.7,5.4-6.7-2.1-9.1-9-15.1c-8.8-7.8-11.7-13.3-11.7-20.9,0-10.6,5.5-16.7,15.8-16.7s15.3,6.1,15.3,16.9V97h-10V93.5c0-4.8-1.9-6.6-5.3-6.6s-5.2,1.8-5.2,6.4,2.2,8.4,9.1,14.5c8.8,7.7,11.6,13.1,11.6,21.4,0,10.9-5.6,17.1-15.9,17.1S679.7,140.1,679.7,129.4Z"/><polygon class="cls-2" points="184.6 160.8 184.6 79.4 114.1 38.7 43.5 79.4 43.5 160.8 114.1 201.5 184.6 160.8"/><polygon class="cls-3" points="98.2 193.2 98.2 211.5 26.9 170.4 26.9 88.3 42.8 97.4 42.8 161.2 98.2 193.2"/><polygon class="cls-4" points="185.3 60.6 169.4 69.8 114.1 37.8 58.7 69.8 42.8 60.6 114.1 19.5 185.3 60.6"/><polygon class="cls-5" points="201.2 88.3 201.2 170.4 129.9 211.5 129.9 193.2 185.3 161.2 185.3 97.4 201.2 88.3"/><polygon class="cls-6" points="98.2 129.4 98.2 193.2 42.8 161.2 42.8 97.4 98.2 129.4"/><polygon class="cls-7" points="114.1 120.2 114.1 202.4 98.2 193.2 98.2 129.4 42.8 97.4 42.8 79.1 114.1 120.2"/><polygon class="cls-8" points="185.3 78.9 114.1 120.1 42.8 78.9 58.7 69.8 114.1 101.8 169.4 69.8 185.3 78.9"/><polygon class="cls-9" points="185.3 79.1 185.3 97.4 129.9 129.4 129.9 193.2 114.1 202.4 114.1 120.2 185.3 79.1"/><polygon class="cls-10" points="185.3 97.4 185.3 161.2 129.9 193.2 129.9 129.4 185.3 97.4"/></svg>