<?xml version="1.0" encoding="utf-8"?>
<!-- Generator: Adobe Illustrator 25.0.0, SVG Export Plug-In . SVG Version: 6.00 Build 0)  -->
<svg version="1.1" id="Layer_1" xmlns="http://www.w3.org/2000/svg" xmlns:xlink="http://www.w3.org/1999/xlink" x="0px" y="0px"
	 viewBox="0 0 841.89 595.28" style="enable-background:new 0 0 841.89 595.28;" xml:space="preserve">
<style type="text/css">
	.st0{fill:#4A6BAB;}
	.st1{fill:#A5D9F7;}
	.st2{fill:none;stroke:url(#SVGID_1_);stroke-width:5.79;stroke-miterlimit:10;}
	.st3{fill:none;stroke:url(#SVGID_2_);stroke-width:5.79;stroke-miterlimit:10;}
	.st4{fill:none;stroke:url(#SVGID_3_);stroke-width:5.79;stroke-miterlimit:10;}
	.st5{fill:none;stroke:url(#SVGID_4_);stroke-width:5.79;stroke-miterlimit:10;}
	.st6{fill:none;stroke:url(#SVGID_5_);stroke-width:5.79;stroke-linejoin:round;}
	.st7{fill:none;stroke:url(#SVGID_6_);stroke-width:5.79;stroke-linejoin:round;}
	.st8{fill:none;stroke:url(#SVGID_7_);stroke-width:5.79;stroke-linejoin:round;}
	.st9{fill:none;stroke:url(#SVGID_8_);stroke-width:5.79;stroke-miterlimit:10;}
</style>
<path class="st0" d="M269.45,325.35v-61.98h12.74v62.95c0,5.82,2.43,7.88,6.55,7.88s6.55-2.06,6.55-7.88v-62.95h12.25v61.98
	c0,12.98-6.55,20.5-19.04,20.5C276,345.85,269.45,338.33,269.45,325.35z"/>
<path class="st0" d="M316.63,263.37h16.01l12.37,48.64h0.24v-48.64h11.4v81.27h-13.1l-15.28-59.31h-0.24v59.31h-11.4V263.37z"/>
<path class="st0" d="M366.24,263.37h12.74v81.27h-12.74V263.37z"/>
<path class="st0" d="M398.51,275.01h-13.34v-11.64h39.42v11.64h-13.34v69.62h-12.74V275.01z"/>
<path class="st0" d="M430.77,263.37h34.81v11.64h-21.95v21.47h17.47v11.64h-17.47v24.87h21.95v11.64h-34.81V263.37z"/>
<path class="st0" d="M472.98,263.37h19.53c12.74,0,19.04,7.04,19.04,20.01v41.24c0,12.98-6.31,20.01-19.04,20.01h-19.53V263.37z
	 M492.27,332.99c4,0,6.43-2.06,6.43-7.88V282.9c0-5.82-2.43-7.88-6.43-7.88h-6.55v57.98H492.27z"/>
<path class="st0" d="M538.72,263.37h12.74v81.27h-12.74V263.37z"/>
<path class="st0" d="M570.99,275.01h-13.34v-11.64h39.54v11.64h-13.46v69.62h-12.74V275.01z"/>
<path class="st0" d="M621.08,325.83v-43.67c0-12.61,6.43-20.01,18.8-20.01c12.37,0,18.8,7.4,18.8,20.01v8.61h-12.01v-9.46
	c0-5.34-2.67-7.52-6.43-7.52s-6.43,2.18-6.43,7.52v45.49c0,5.34,2.55,7.4,6.43,7.4s6.43-2.06,6.43-7.4v-12.49h12.01v11.52
	c0,12.49-6.43,20.01-18.8,20.01C627.51,345.85,621.08,338.33,621.08,325.83z"/>
<path class="st0" d="M666.32,263.37h12.86v69.62h20.98v11.64h-33.84V263.37z"/>
<path class="st0" d="M705.87,325.35v-61.98h12.74v62.95c0,5.82,2.43,7.88,6.55,7.88s6.55-2.06,6.55-7.88v-62.95h12.25v61.98
	c0,12.98-6.55,20.5-19.04,20.5S705.87,338.33,705.87,325.35z"/>
<path class="st0" d="M753.05,263.37h19.29c13.22,0,18.92,6.19,18.92,18.68v3.27c0,8.37-2.55,13.59-8.25,15.89v0.24
	c6.79,2.3,9.46,8.37,9.46,16.98v6.91c0,12.61-6.55,19.29-19.29,19.29h-20.13V263.37z M770.76,296.48c4.85,0,7.76-2.18,7.76-8.61
	v-4.49c0-5.82-2.06-8.37-6.55-8.37h-6.19v21.47H770.76z M773.19,332.99c4.25,0,6.55-1.94,6.55-8.01v-7.04
	c0-7.52-2.43-9.82-8.25-9.82h-5.7v24.87H773.19z"/>
<path class="st0" d="M797.81,325.35v-4.61h12.01v5.58c0,5.82,2.55,7.88,6.67,7.88c4.12,0,6.55-2.06,6.55-8.13
	s-2.55-11.04-10.92-18.32c-10.67-9.46-14.19-16.13-14.19-25.35c0-12.86,6.67-20.26,19.16-20.26s18.56,7.4,18.56,20.5v3.4h-12.13
	v-4.25c0-5.82-2.3-8.01-6.43-8.01c-4.12,0-6.31,2.18-6.31,7.76s2.67,10.19,11.04,17.59c10.67,9.34,14.07,15.89,14.07,25.96
	c0,13.22-6.79,20.74-19.29,20.74C804.12,345.85,797.81,338.33,797.81,325.35z"/>
<polygon class="st1" points="197.28,363.44 197.28,264.7 111.76,215.33 26.13,264.7 26.13,363.44 111.76,412.8 "/>
<linearGradient id="SVGID_1_" gradientUnits="userSpaceOnUse" x1="3.1001" y1="246.5014" x2="95.3734" y2="246.5014" gradientTransform="matrix(1 0 0 -1 0 596.7244)">
	<stop  offset="0" style="stop-color:#2782C5"/>
	<stop  offset="1" style="stop-color:#895DA3"/>
</linearGradient>
<polygon class="st2" points="92.48,402.73 92.48,424.93 6,375.08 6,275.5 25.28,286.53 25.28,363.92 "/>
<linearGradient id="SVGID_2_" gradientUnits="userSpaceOnUse" x1="19.4923" y1="374.1718" x2="203.9118" y2="374.1718" gradientTransform="matrix(1 0 0 -1 0 596.7244)">
	<stop  offset="0" style="stop-color:#2782C5"/>
	<stop  offset="1" style="stop-color:#895DA3"/>
</linearGradient>
<polygon class="st3" points="198.13,241.9 178.84,253.06 111.76,214.24 44.57,253.06 25.28,241.9 111.76,192.05 "/>
<linearGradient id="SVGID_3_" gradientUnits="userSpaceOnUse" x1="128.0338" y1="246.5014" x2="220.3071" y2="246.5014" gradientTransform="matrix(1 0 0 -1 0 596.7244)">
	<stop  offset="0" style="stop-color:#2782C5"/>
	<stop  offset="1" style="stop-color:#895DA3"/>
</linearGradient>
<polygon class="st4" points="217.41,275.5 217.41,375.08 130.93,424.93 130.93,402.73 198.13,363.92 198.13,286.53 "/>
<linearGradient id="SVGID_4_" gradientUnits="userSpaceOnUse" x1="22.386" y1="252.0898" x2="95.3734" y2="252.0898" gradientTransform="matrix(1 0 0 -1 0 596.7244)">
	<stop  offset="0" style="stop-color:#2782C5"/>
	<stop  offset="1" style="stop-color:#895DA3"/>
</linearGradient>
<polygon class="st5" points="92.48,325.35 92.48,402.73 25.28,363.92 25.28,286.53 "/>
<linearGradient id="SVGID_5_" gradientUnits="userSpaceOnUse" x1="22.386" y1="257.6088" x2="114.6592" y2="257.6088" gradientTransform="matrix(1 0 0 -1 0 596.7244)">
	<stop  offset="0" style="stop-color:#2782C5"/>
	<stop  offset="1" style="stop-color:#895DA3"/>
</linearGradient>
<polygon class="st6" points="111.76,314.19 111.76,413.89 92.48,402.73 92.48,325.35 25.28,286.53 25.28,264.34 "/>
<linearGradient id="SVGID_6_" gradientUnits="userSpaceOnUse" x1="22.386" y1="313.1618" x2="201.0212" y2="313.1618" gradientTransform="matrix(1 0 0 -1 0 596.7244)">
	<stop  offset="0" style="stop-color:#2782C5"/>
	<stop  offset="1" style="stop-color:#895DA3"/>
</linearGradient>
<polygon class="st7" points="198.13,264.09 111.76,314.07 25.28,264.09 44.57,253.06 111.76,291.87 178.84,253.06 "/>
<linearGradient id="SVGID_7_" gradientUnits="userSpaceOnUse" x1="108.8692" y1="257.6088" x2="201.0212" y2="257.6088" gradientTransform="matrix(1 0 0 -1 0 596.7244)">
	<stop  offset="0" style="stop-color:#2782C5"/>
	<stop  offset="1" style="stop-color:#895DA3"/>
</linearGradient>
<polygon class="st8" points="198.13,264.34 198.13,286.53 130.93,325.35 130.93,402.73 111.76,413.89 111.76,314.19 "/>
<linearGradient id="SVGID_8_" gradientUnits="userSpaceOnUse" x1="128.0338" y1="252.0898" x2="201.0212" y2="252.0898" gradientTransform="matrix(1 0 0 -1 0 596.7244)">
	<stop  offset="0" style="stop-color:#2782C5"/>
	<stop  offset="1" style="stop-color:#895DA3"/>
</linearGradient>
<polygon class="st9" points="198.13,286.53 198.13,363.92 130.93,402.73 130.93,325.35 "/>
</svg>
